<?xml version="1.0" encoding="UTF-8" standalone="no"?>
<!DOCTYPE svg PUBLIC "-//W3C//DTD SVG 1.1//EN" "http://www.w3.org/Graphics/SVG/1.1/DTD/svg11.dtd">
<svg width="100%" height="100%" viewBox="0 0 792 612" version="1.1" xmlns="http://www.w3.org/2000/svg" xmlns:xlink="http://www.w3.org/1999/xlink" xml:space="preserve" xmlns:serif="http://www.serif.com/" style="fill-rule:evenodd;clip-rule:evenodd;stroke-linejoin:round;stroke-miterlimit:2;">
    <g id="Capa_x0020_1" transform="matrix(0.028346,0,0,0.028346,0,0)">
        <g id="_105554014635520" transform="matrix(1.244265,0,0,1.244265,-3924.771537,2772.497919)">
            <path d="M5667.36,8333.31C5980.06,8333.31 6217.77,8391.15 6380.48,8506.82C6543.18,8622.49 6624.54,8797.28 6624.54,9031.16C6624.54,9160.82 6604.2,9277.77 6563.53,9382C6522.84,9486.24 6458.02,9573.95 6369.04,9645.13C6280.06,9716.32 6166.28,9770.98 6027.73,9809.12C5889.17,9847.25 5723.3,9866.32 5530.08,9866.32L3154.29,9866.32L3661.48,9210.4L5591.1,9210.4C5685.16,9210.4 5753.8,9195.78 5797.01,9166.54C5840.23,9137.32 5861.85,9089.65 5861.85,9023.54C5861.85,8957.45 5840.23,8910.41 5797.01,8882.44C5753.8,8854.47 5685.16,8840.5 5591.1,8840.5L4202.99,8840.5C4037.74,8840.5 3895.37,8822.7 3775.89,8787.11C3656.39,8751.51 3557.25,8701.94 3478.44,8638.38C3399.62,8574.82 3341.14,8497.93 3303.02,8407.67C3264.88,8317.41 3245.81,8217.63 3245.81,8108.32C3245.81,7988.82 3266.78,7880.14 3308.72,7782.26C3350.68,7684.37 3415.5,7601.11 3503.21,7532.47C3590.92,7463.83 3704.05,7410.44 3842.62,7372.3C3981.18,7334.18 4147.05,7315.11 4340.27,7315.11L6555.9,7315.11L6048.7,7978.65L4279.25,7978.65C4187.74,7978.65 4119.73,7991.37 4075.24,8016.79C4030.75,8042.21 4008.5,8087.97 4008.5,8154.07C4008.5,8220.18 4030.75,8266.57 4075.24,8293.26C4119.73,8319.96 4187.74,8333.31 4279.25,8333.31L5667.36,8333.31ZM9639.3,7315.11L9128.29,7978.65L8216.88,7978.65L8216.88,9866.32L7427.49,9866.32L7427.49,7978.65L6230.07,7978.65L6741.08,7315.11L9639.3,7315.11ZM12566.37,9210.4L12059.16,9866.32L9603.31,9866.32L9603.31,7315.11L12558.73,7315.11L12047.74,7978.65L10396.5,7978.65L10396.5,8283.74L12417.64,8283.74L11963.83,8863.37L10396.5,8863.37L10396.5,9210.4L12566.37,9210.4ZM15325.62,9210.4L14814.63,9866.32L12560.87,9866.32L12560.87,7315.11L13350.26,7315.11L13350.26,9210.4L15325.62,9210.4ZM18077.27,9210.4L17566.28,9866.32L15312.52,9866.32L15312.52,7315.11L16101.91,7315.11L16101.91,9210.4L18077.27,9210.4ZM19017.51,9866.32L19494.2,9210.4L20373.2,9210.4C20455.83,9210.4 20527.65,9212.95 20588.66,9218.03C20553.07,9172.26 20511.77,9114.43 20464.73,9044.51C20417.69,8974.6 20372.57,8909.13 20329.35,8848.12L19871.74,8173.14L18674.31,9866.32L17740.01,9866.32L19375.99,7559.17C19429.38,7485.45 19496.75,7419.34 19578.11,7360.87C19659.45,7302.39 19762.42,7273.16 19886.98,7273.16C20006.48,7273.16 20106.27,7300.49 20186.35,7355.15C20266.44,7409.81 20334.43,7477.81 20390.37,7559.17L21984.39,9866.32L19017.51,9866.32ZM25609.32,9866.32L24552.98,9866.32L23984.78,9191.33L22772.09,9191.33L22772.09,9866.32L21982.7,9866.32L21982.7,8562.12L24202.14,8562.12C24324.17,8562.12 24427.15,8536.69 24511.04,8485.84C24594.93,8434.99 24636.89,8365.08 24636.89,8276.1C24636.89,8176.96 24598.75,8102.59 24522.48,8053.01C24446.2,8003.44 24339.44,7978.65 24202.14,7978.65L21982.7,7978.65L22497.53,7315.11L24137.32,7315.11C24282.23,7315.11 24432.22,7328.46 24587.3,7355.15C24742.39,7381.85 24883.49,7429.51 25010.6,7498.15C25137.72,7566.79 25242.59,7659.6 25325.22,7776.53C25407.83,7893.48 25449.15,8043.48 25449.15,8226.53C25449.15,8325.68 25433.9,8419.74 25403.38,8508.73C25372.88,8597.71 25329.02,8677.79 25271.83,8748.96C25214.62,8820.15 25144.7,8880.54 25062.09,8930.11C24979.46,8979.69 24886.02,9014.64 24781.79,9034.98C24825.01,9068.03 24873.32,9109.98 24926.71,9160.82C24980.1,9211.68 25051.27,9281.59 25140.25,9370.57L25609.32,9866.32Z" style="fill:rgb(0,45,112);fill-rule:nonzero;"/>
            <path d="M5664.23,11167.09L5664.23,10324.94L5829.05,10324.94L6081.7,10736.39L6337.94,10324.94L6495.55,10324.94L6495.55,11167.09L6318.7,11167.09L6318.7,10878.34C6318.7,10829.42 6319.5,10784.1 6321.11,10742.4C6322.71,10700.7 6325.51,10660.59 6329.53,10622.1L6117.79,10950.53L6038.38,10950.53L5831.45,10624.5C5834.66,10661.4 5837.07,10700.29 5838.67,10741.19C5840.28,10782.1 5841.07,10827.82 5841.07,10878.34L5841.07,11167.09L5664.23,11167.09ZM6928.67,11179.11C6875.73,11179.11 6828.01,11164.68 6785.5,11135.81C6742.99,11106.93 6709.3,11067.43 6684.45,11017.3C6659.57,10967.18 6647.14,10910.44 6647.14,10847.07C6647.14,10782.91 6659.78,10725.96 6685.04,10676.23C6710.3,10626.5 6744.59,10587.6 6787.91,10559.53C6831.22,10531.45 6880.55,10517.43 6935.89,10517.43C6979.99,10517.43 7018.7,10526.24 7051.99,10543.9C7085.27,10561.53 7112.34,10584.79 7133.18,10613.66L7133.18,10530.66L7302.83,10530.66L7302.83,11167.09L7130.78,11167.09L7130.78,11084.07C7108.33,11111.34 7079.65,11134.01 7044.76,11152.05C7009.88,11170.1 6971.18,11179.11 6928.67,11179.11ZM6975.59,11031.14C7023.71,11031.14 7062.42,11014.3 7091.69,10980.61C7120.96,10946.92 7135.6,10902.41 7135.6,10847.07C7135.6,10792.53 7120.96,10748.41 7091.69,10714.72C7062.42,10681.05 7023.71,10664.2 6975.59,10664.2C6928.26,10664.2 6889.96,10681.05 6860.69,10714.72C6831.41,10748.41 6816.78,10792.53 6816.78,10847.07C6816.78,10902.41 6831.41,10946.92 6860.69,10980.61C6889.96,11014.3 6928.26,11031.14 6975.59,11031.14ZM7473.66,11167.09L7473.66,10530.66L7637.28,10530.66L7640.89,10613.66C7662.54,10585.6 7691.21,10562.53 7726.9,10544.49C7762.59,10526.44 7800.09,10517.43 7839.39,10517.43C7985.36,10517.43 8058.35,10604.04 8058.35,10777.28L8058.35,11167.09L7887.51,11167.09L7887.51,10790.52C7887.51,10703.1 7851.01,10660.99 7778.04,10664.2C7739.54,10664.2 7707.66,10675.82 7682.4,10699.09C7657.12,10722.35 7644.5,10750.81 7644.5,10784.51L7644.5,11167.09L7473.66,11167.09ZM8440.93,11179.11C8371.95,11179.11 8317.42,11156.46 8277.31,11111.15C8237.2,11065.82 8217.15,11003.06 8217.15,10922.87L8217.15,10530.66L8387.99,10530.66L8387.99,10895.19C8387.99,10939.31 8398.62,10973.79 8419.88,10998.66C8441.12,11023.52 8470.61,11035.95 8508.3,11035.95C8545.2,11035.95 8575.87,11024.33 8600.34,11001.06C8624.8,10977.8 8637.03,10948.13 8637.03,10912.03L8637.03,10530.66L8807.87,10530.66L8807.87,11167.09L8645.45,11167.09L8641.84,11079.26C8620.19,11109.75 8591.72,11134.01 8556.43,11152.05C8521.13,11170.1 8482.63,11179.11 8440.93,11179.11ZM9029.24,11167.09L9029.24,10690.67L8934.19,10690.67L8934.19,10546.3L9029.24,10546.3L9029.24,10486.14C9029.24,10446.84 9038.05,10411.15 9055.71,10379.07C9073.34,10346.99 9097.6,10321.73 9128.49,10303.27C9159.36,10284.83 9195.66,10275.61 9237.36,10275.61C9265.44,10275.61 9291.9,10280.22 9316.77,10289.44C9341.63,10298.66 9362.89,10310.9 9380.53,10326.13L9330.01,10452.46C9319.58,10446.05 9308.95,10440.63 9298.12,10436.21C9287.29,10431.8 9277.47,10429.6 9268.65,10429.6C9223.73,10429.6 9201.27,10452.46 9201.27,10498.18L9201.27,10546.3L9338.42,10546.3L9338.42,10690.67L9201.27,10690.67L9201.27,11167.09L9029.24,11167.09ZM9666.87,11179.11C9613.93,11179.11 9566.21,11164.68 9523.71,11135.81C9481.2,11106.93 9447.51,11067.43 9422.65,11017.3C9397.77,10967.18 9385.35,10910.44 9385.35,10847.07C9385.35,10782.91 9397.98,10725.96 9423.24,10676.23C9448.5,10626.5 9482.79,10587.6 9526.11,10559.53C9569.42,10531.45 9618.75,10517.43 9674.09,10517.43C9718.2,10517.43 9756.9,10526.24 9790.19,10543.9C9823.48,10561.53 9850.54,10584.79 9871.39,10613.66L9871.39,10530.66L10041.03,10530.66L10041.03,11167.09L9868.98,11167.09L9868.98,11084.07C9846.53,11111.34 9817.85,11134.01 9782.97,11152.05C9748.08,11170.1 9709.38,11179.11 9666.87,11179.11ZM9713.79,11031.14C9761.91,11031.14 9800.62,11014.3 9829.89,10980.61C9859.17,10946.92 9873.8,10902.41 9873.8,10847.07C9873.8,10792.53 9859.17,10748.41 9829.89,10714.72C9800.62,10681.05 9761.91,10664.2 9713.79,10664.2C9666.47,10664.2 9628.16,10681.05 9598.89,10714.72C9569.62,10748.41 9554.98,10792.53 9554.98,10847.07C9554.98,10902.41 9569.62,10946.92 9598.89,10980.61C9628.16,11014.3 9666.47,11031.14 9713.79,11031.14ZM10488.56,11179.11C10427.61,11179.11 10373.08,11164.68 10324.94,11135.81C10276.82,11106.93 10238.92,11067.62 10211.26,11017.91C10183.58,10968.18 10169.75,10911.63 10169.75,10848.28C10169.75,10784.91 10183.58,10728.36 10211.26,10678.63C10238.92,10628.91 10276.82,10589.61 10324.94,10560.73C10373.08,10531.85 10427.61,10517.43 10488.56,10517.43C10545.51,10517.43 10597.65,10527.86 10644.96,10548.7C10692.29,10569.56 10729.19,10598.43 10755.66,10635.33L10661.8,10748.41C10644.96,10725.15 10622.31,10705.71 10593.84,10690.06C10565.36,10674.42 10535.49,10666.6 10504.2,10666.6C10471.33,10666.6 10442.25,10674.42 10416.99,10690.06C10391.71,10705.71 10371.87,10727.17 10357.42,10754.43C10343,10781.7 10335.77,10812.97 10335.77,10848.28C10335.77,10881.95 10343.19,10912.63 10358.04,10940.31C10372.87,10967.97 10393.11,10989.63 10418.79,11005.27C10444.46,11020.91 10473.33,11028.73 10505.41,11028.73C10536.7,11028.73 10565.36,11021.91 10591.42,11008.29C10617.49,10994.65 10640.96,10975.4 10661.8,10950.53L10754.45,11063.63C10727.17,11098.11 10689.48,11125.98 10641.35,11147.24C10593.23,11168.49 10542.31,11179.11 10488.56,11179.11ZM10925.29,11167.09L10925.29,10683.45L10806.19,10683.45L10806.19,10530.66L10925.29,10530.66L10925.29,10369.44L11096.13,10369.44L11096.13,10530.66L11227.27,10530.66L11227.27,10683.45L11096.13,10683.45L11096.13,11167.09L10925.29,11167.09ZM11556.91,11179.11C11487.93,11179.11 11433.4,11156.46 11393.29,11111.15C11353.18,11065.82 11333.13,11003.06 11333.13,10922.87L11333.13,10530.66L11503.97,10530.66L11503.97,10895.19C11503.97,10939.31 11514.59,10973.79 11535.86,10998.66C11557.1,11023.52 11586.59,11035.95 11624.28,11035.95C11661.17,11035.95 11691.85,11024.33 11716.32,11001.06C11740.78,10977.8 11753.01,10948.13 11753.01,10912.03L11753.01,10530.66L11923.85,10530.66L11923.85,11167.09L11761.43,11167.09L11757.81,11079.26C11736.17,11109.75 11707.7,11134.01 11672.41,11152.05C11637.11,11170.1 11598.61,11179.11 11556.91,11179.11ZM12095.89,11167.09L12095.89,10530.66L12260.7,10530.66L12263.12,10634.12C12283.96,10599.64 12311.24,10571.56 12344.93,10549.91C12378.6,10528.24 12414.69,10517.43 12453.21,10517.43C12466.83,10517.43 12480.06,10518.62 12492.89,10521.04C12505.74,10523.44 12516.56,10526.24 12525.38,10529.45L12479.66,10717.14C12470.84,10712.32 12459.41,10708.11 12445.37,10704.5C12431.35,10700.89 12417.11,10699.09 12402.67,10699.09C12364.17,10699.09 12332.1,10712.13 12306.42,10738.19C12280.75,10764.26 12267.92,10797.34 12267.92,10837.44L12267.92,11167.09L12095.89,11167.09ZM12721.49,10399.52C12688.61,10399.52 12662.95,10391.5 12644.49,10375.46C12626.05,10359.42 12616.83,10336.56 12616.83,10306.88C12616.83,10279.61 12626.24,10257.36 12645.1,10240.11C12663.94,10222.86 12689.41,10214.24 12721.49,10214.24C12754.38,10214.24 12780.04,10222.46 12798.48,10238.9C12816.94,10255.35 12826.16,10278.01 12826.16,10306.88C12826.16,10334.96 12816.73,10357.42 12797.89,10374.26C12779.04,10391.09 12753.57,10399.52 12721.49,10399.52ZM12637.27,11167.09L12637.27,10530.66L12808.11,10530.66L12808.11,11167.09L12637.27,11167.09ZM12990.97,11167.09L12990.97,10530.66L13154.59,10530.66L13158.2,10613.66C13179.85,10585.6 13208.53,10562.53 13244.22,10544.49C13279.91,10526.44 13317.41,10517.43 13356.71,10517.43C13502.68,10517.43 13575.67,10604.04 13575.67,10777.28L13575.67,11167.09L13404.83,11167.09L13404.83,10790.52C13404.83,10703.1 13368.33,10660.99 13295.36,10664.2C13256.86,10664.2 13224.97,10675.82 13199.71,10699.09C13174.44,10722.35 13161.82,10750.81 13161.82,10784.51L13161.82,11167.09L12990.97,11167.09ZM14029.23,11443.79C13978.7,11443.79 13928.97,11436.37 13880.05,11421.54C13831.12,11406.7 13791.42,11387.25 13760.94,11363.19L13821.1,11241.67C13845.96,11259.33 13875.04,11273.35 13908.32,11283.78C13941.6,11294.21 13976.29,11299.43 14012.38,11299.43C14135.1,11299.43 14196.46,11241.67 14196.46,11126.19L14196.46,11080.46C14176.4,11105.33 14148.74,11125.98 14113.44,11142.42C14078.15,11158.86 14041.27,11167.09 14002.76,11167.09C13943.4,11167.09 13890.88,11153.45 13845.15,11126.19C13799.43,11098.91 13763.36,11061.21 13736.89,11013.09C13710.42,10964.97 13697.18,10909.23 13697.18,10845.86C13697.18,10782.51 13710.21,10726.15 13736.27,10676.82C13762.34,10627.51 13798.03,10588.6 13843.36,10560.13C13888.67,10531.66 13940.19,10517.43 13997.95,10517.43C14039.66,10517.43 14078.76,10525.84 14115.24,10542.69C14151.74,10559.53 14180.42,10579.99 14201.28,10604.04L14203.68,10530.66L14367.3,10530.66L14367.3,11118.97C14367.3,11222.43 14337.22,11302.43 14277.06,11358.98C14216.91,11415.53 14134.3,11443.79 14029.23,11443.79ZM14034.05,11029.94C14084.57,11029.94 14125.08,11013.3 14155.56,10980.01C14186.03,10946.72 14201.28,10902.41 14201.28,10847.07C14201.28,10792.53 14186.03,10748.41 14155.56,10714.72C14125.08,10681.05 14084.57,10664.2 14034.05,10664.2C13984.31,10664.2 13944.21,10681.24 13913.74,10715.33C13883.26,10749.41 13868.01,10793.32 13868.01,10847.07C13868.01,10901.6 13883.26,10945.72 13913.74,10979.4C13944.21,11013.09 13984.31,11029.94 14034.05,11029.94ZM15205.84,11179.11C15144.89,11179.11 15089.74,11166.89 15040.41,11142.42C14991.08,11117.97 14952.19,11085.28 14923.72,11044.38C14895.25,11003.47 14881.01,10957.75 14881.01,10907.21C14881.01,10851.08 14895.85,10800.95 14925.52,10756.83C14955.2,10712.72 14998.92,10677.44 15056.66,10650.97C15032.59,10606.85 15020.57,10566.75 15020.57,10530.66C15020.57,10488.15 15031.79,10450.04 15054.26,10416.37C15076.71,10382.68 15107.58,10356.21 15146.88,10336.96C15186.19,10317.71 15231.9,10308.09 15284.03,10308.09C15322.55,10308.09 15358.83,10314.7 15392.93,10327.93C15427,10341.17 15456.49,10359.82 15481.35,10383.89C15506.2,10407.94 15523.85,10435.62 15534.28,10466.89L15400.74,10547.51C15387.11,10513.82 15371.26,10490.15 15353.22,10476.51C15335.17,10462.88 15313.31,10456.06 15287.65,10456.06C15258.77,10456.06 15236.32,10463.09 15220.28,10477.13C15204.24,10491.15 15196.21,10511.01 15196.21,10536.67C15196.21,10553.52 15202.03,10572.77 15213.65,10594.42C15225.29,10616.08 15240.12,10638.33 15258.18,10661.19C15276.22,10684.04 15294.67,10705.71 15313.52,10726.15C15332.36,10746.61 15349,10764.45 15363.44,10779.69L15450.07,10874.73C15466.11,10839.44 15476.53,10800.14 15481.35,10756.83L15638.95,10756.83C15626.91,10842.65 15600.46,10918.45 15559.54,10984.22L15730.39,11167.09L15516.23,11167.09L15452.47,11099.72C15417.98,11125.38 15380.08,11145.03 15338.78,11158.67C15297.48,11172.29 15253.16,11179.11 15205.84,11179.11ZM15050.65,10891.58C15050.65,10935.7 15066.07,10970.98 15096.96,10997.45C15127.85,11023.92 15171.35,11037.16 15227.5,11037.16C15272.41,11037.16 15313.71,11024.33 15351.42,10998.66L15181.78,10815.78C15165.75,10798.95 15150.9,10782.1 15137.26,10765.26C15079.52,10790.92 15050.65,10833.03 15050.65,10891.58ZM16118.98,11167.09L16448.62,10324.94L16609.84,10324.94L16938.27,11167.09L16753,11167.09L16686.83,10990.23L16364.41,10990.23L16297.04,11167.09L16118.98,11167.09ZM16466.67,10717.14C16466.67,10717.14 16418.54,10844.67 16418.54,10844.67L16632.7,10844.67L16583.37,10713.53C16576.15,10694.28 16567.12,10668.21 16556.3,10635.33C16545.47,10602.44 16535.25,10571.16 16525.63,10541.48C16516.79,10571.16 16507.17,10601.24 16496.75,10631.72C16486.32,10662.19 16476.3,10690.67 16466.67,10717.14ZM17239.06,11179.11C17170.08,11179.11 17115.54,11156.46 17075.44,11111.15C17035.33,11065.82 17015.28,11003.06 17015.28,10922.87L17015.28,10530.66L17186.12,10530.66L17186.12,10895.19C17186.12,10939.31 17196.74,10973.79 17218,10998.66C17239.25,11023.52 17268.73,11035.95 17306.42,11035.95C17343.32,11035.95 17374,11024.33 17398.47,11001.06C17422.92,10977.8 17435.16,10948.13 17435.16,10912.03L17435.16,10530.66L17606,10530.66L17606,11167.09L17443.57,11167.09L17439.96,11079.26C17418.31,11109.75 17389.84,11134.01 17354.56,11152.05C17319.25,11170.1 17280.76,11179.11 17239.06,11179.11ZM17839.39,11167.09L17839.39,10683.45L17720.29,10683.45L17720.29,10530.66L17839.39,10530.66L17839.39,10369.44L18010.23,10369.44L18010.23,10530.66L18141.37,10530.66L18141.37,10683.45L18010.23,10683.45L18010.23,11167.09L17839.39,11167.09ZM18541.98,11179.11C18477.02,11179.11 18419.07,11164.88 18368.14,11136.41C18317.22,11107.94 18277.11,11068.64 18247.84,11018.51C18218.56,10968.37 18203.93,10911.63 18203.93,10848.28C18203.93,10784.91 18218.56,10728.17 18247.84,10678.03C18277.11,10627.9 18317.22,10588.6 18368.14,10560.13C18419.07,10531.66 18477.02,10517.43 18541.98,10517.43C18606.16,10517.43 18663.5,10531.66 18714.03,10560.13C18764.55,10588.6 18804.47,10627.9 18833.74,10678.03C18863.02,10728.17 18877.65,10784.91 18877.65,10848.28C18877.65,10911.63 18863.02,10968.37 18833.74,11018.51C18804.47,11068.64 18764.55,11107.94 18714.03,11136.41C18663.5,11164.88 18606.16,11179.11 18541.98,11179.11ZM18541.98,11029.94C18574.08,11029.94 18602.34,11022.12 18626.81,11006.48C18651.26,10990.83 18670.53,10969.37 18684.55,10942.11C18698.59,10914.84 18705.6,10883.56 18705.6,10848.28C18705.6,10795.34 18690.18,10751.62 18659.29,10717.14C18628.4,10682.64 18589.31,10665.39 18541.98,10665.39C18509.9,10665.39 18481.44,10673.42 18456.56,10689.46C18431.71,10705.5 18412.26,10727.17 18398.22,10754.43C18384.18,10781.7 18377.17,10812.97 18377.17,10848.28C18377.17,10883.56 18384.18,10914.84 18398.22,10942.11C18412.26,10969.37 18431.71,10990.83 18456.56,11006.48C18481.44,11022.12 18509.9,11029.94 18541.98,11029.94ZM19006.37,11167.09L19006.37,10530.66L19171.2,10530.66L19173.6,10614.87C19195.25,10585.2 19223.12,10561.74 19257.22,10544.49C19291.31,10527.24 19326.39,10518.62 19362.48,10518.62C19406.6,10518.62 19444.7,10528.05 19476.78,10546.89C19508.87,10565.74 19533.32,10596.03 19550.17,10637.73C19571.82,10602.44 19602.9,10573.77 19643.41,10551.71C19683.9,10529.65 19724.22,10518.62 19764.31,10518.62C19912.7,10518.62 19986.88,10606.06 19986.88,10780.89L19986.88,11167.09L19816.06,11167.09L19816.06,10792.92C19816.06,10708.71 19780.75,10666.6 19710.18,10666.6C19673.28,10666.6 19642.6,10678.24 19618.15,10701.49C19593.68,10724.75 19581.44,10753.23 19581.44,10786.91L19581.44,11167.09L19410.62,11167.09L19410.62,10791.73C19410.62,10750.81 19401.59,10719.73 19383.54,10698.49C19365.5,10677.23 19339.62,10666.6 19305.95,10666.6C19269.05,10666.6 19238.57,10678.03 19214.52,10700.89C19190.45,10723.75 19178.42,10752.02 19178.42,10785.71L19178.42,11167.09L19006.37,11167.09ZM20387.52,11179.11C20334.58,11179.11 20286.86,11164.68 20244.35,11135.81C20201.84,11106.93 20168.15,11067.43 20143.3,11017.3C20118.42,10967.18 20105.99,10910.44 20105.99,10847.07C20105.99,10782.91 20118.63,10725.96 20143.89,10676.23C20169.15,10626.5 20203.44,10587.6 20246.75,10559.53C20290.07,10531.45 20339.4,10517.43 20394.74,10517.43C20438.84,10517.43 20477.55,10526.24 20510.84,10543.9C20544.12,10561.53 20571.19,10584.79 20592.03,10613.66L20592.03,10530.66L20761.68,10530.66L20761.68,11167.09L20589.63,11167.09L20589.63,11084.07C20567.18,11111.34 20538.5,11134.01 20503.61,11152.05C20468.73,11170.1 20430.02,11179.11 20387.52,11179.11ZM20434.44,11031.14C20482.56,11031.14 20521.26,11014.3 20550.54,10980.61C20579.81,10946.92 20594.45,10902.41 20594.45,10847.07C20594.45,10792.53 20579.81,10748.41 20550.54,10714.72C20521.26,10681.05 20482.56,10664.2 20434.44,10664.2C20387.11,10664.2 20348.81,10681.05 20319.54,10714.72C20290.26,10748.41 20275.63,10792.53 20275.63,10847.07C20275.63,10902.41 20290.26,10946.92 20319.54,10980.61C20348.81,11014.3 20387.11,11031.14 20434.44,11031.14ZM20993.86,11167.09L20993.86,10683.45L20874.76,10683.45L20874.76,10530.66L20993.86,10530.66L20993.86,10369.44L21164.7,10369.44L21164.7,10530.66L21295.84,10530.66L21295.84,10683.45L21164.7,10683.45L21164.7,11167.09L20993.86,11167.09ZM21505.17,10399.52C21472.29,10399.52 21446.63,10391.5 21428.17,10375.46C21409.73,10359.42 21400.51,10336.56 21400.51,10306.88C21400.51,10279.61 21409.92,10257.36 21428.78,10240.11C21447.63,10222.86 21473.1,10214.24 21505.17,10214.24C21538.06,10214.24 21563.72,10222.46 21582.16,10238.9C21600.62,10255.35 21609.84,10278.01 21609.84,10306.88C21609.84,10334.96 21600.41,10357.42 21581.57,10374.26C21562.72,10391.09 21537.25,10399.52 21505.17,10399.52ZM21420.95,11167.09L21420.95,10530.66L21591.79,10530.66L21591.79,11167.09L21420.95,11167.09ZM22070.61,11179.11C22005.64,11179.11 21947.69,11164.88 21896.77,11136.41C21845.84,11107.94 21805.74,11068.64 21776.46,11018.51C21747.19,10968.37 21732.55,10911.63 21732.55,10848.28C21732.55,10784.91 21747.19,10728.17 21776.46,10678.03C21805.74,10627.9 21845.84,10588.6 21896.77,10560.13C21947.69,10531.66 22005.64,10517.43 22070.61,10517.43C22134.78,10517.43 22192.12,10531.66 22242.66,10560.13C22293.18,10588.6 22333.09,10627.9 22362.36,10678.03C22391.64,10728.17 22406.28,10784.91 22406.28,10848.28C22406.28,10911.63 22391.64,10968.37 22362.36,11018.51C22333.09,11068.64 22293.18,11107.94 22242.66,11136.41C22192.12,11164.88 22134.78,11179.11 22070.61,11179.11ZM22070.61,11029.94C22102.7,11029.94 22130.96,11022.12 22155.43,11006.48C22179.88,10990.83 22199.15,10969.37 22213.17,10942.11C22227.21,10914.84 22234.23,10883.56 22234.23,10848.28C22234.23,10795.34 22218.8,10751.62 22187.91,10717.14C22157.03,10682.64 22117.93,10665.39 22070.61,10665.39C22038.53,10665.39 22010.06,10673.42 21985.18,10689.46C21960.33,10705.5 21940.89,10727.17 21926.85,10754.43C21912.81,10781.7 21905.79,10812.97 21905.79,10848.28C21905.79,10883.56 21912.81,10914.84 21926.85,10942.11C21940.89,10969.37 21960.33,10990.83 21985.18,11006.48C22010.06,11022.12 22038.53,11029.94 22070.61,11029.94ZM22536.2,11167.09L22536.2,10530.66L22699.82,10530.66L22703.43,10613.66C22725.08,10585.6 22753.76,10562.53 22789.45,10544.49C22825.14,10526.44 22862.64,10517.43 22901.94,10517.43C23047.91,10517.43 23120.9,10604.04 23120.9,10777.28L23120.9,11167.09L22950.06,11167.09L22950.06,10790.52C22950.06,10703.1 22913.56,10660.99 22840.58,10664.2C22802.09,10664.2 22770.2,10675.82 22744.94,10699.09C22719.67,10722.35 22707.05,10750.81 22707.05,10784.51L22707.05,11167.09L22536.2,11167.09Z" style="fill:rgb(133,135,137);fill-rule:nonzero;"/>
            <path d="M14391.95,4445.9L13823.35,3915.04L13074.58,4074.56C13071.01,3600.58 13178.1,3275.82 13570.06,3171.94C13648.6,3151.12 13714.36,3150.98 13769.56,3148.29L14007.07,3136.72L14184.71,2385.2C13530.12,2390.96 13092.31,2453.7 12739.29,2809.5C12241.73,3310.97 12352.95,3755.51 12306.99,4228.48L11397.92,4444.75L14376.73,4462.97L13843.33,4981.73L14001.93,5778.78L12628.43,5780.23L12072.51,6539.81L14158.09,6540.33L14377,7474.33L14392.74,4479.71L14961.48,5010.5L15710.19,4850.77C15713.14,5322.78 15609.82,5649.36 15215.44,5753.36C15144.76,5772 15085.7,5774.81 15035.63,5775.6L14772.77,5779.89L14592.46,6540.72C14648.09,6539.83 14729.47,6538.45 14783.83,6536.33C15512.15,6507.9 16121.89,6349.06 16392.29,5558.79C16501.08,5240.85 16443.68,5020.26 16478.08,4697.16L17387.44,4480.21L14408.09,4462.75L14941.81,3944.51L14788.84,3140.08L16274.66,3133.35L16761.71,2385.06L14626.74,2385.37L14407.39,1451.38L14391.95,4445.9Z" style="fill:rgb(133,135,137);"/>
        </g>
    </g>
</svg>
